<svg xmlns="http://www.w3.org/2000/svg" xmlns:xlink="http://www.w3.org/1999/xlink" id="OBJECTS" x="0px" y="0px" viewBox="0 0 500 500" style="enable-background:new 0 0 500 500;" xml:space="preserve"><style type="text/css">	.st0{fill:#E3E1FF;}	.st1{opacity:0.25;fill:#0964AF;}	.st2{fill:none;stroke:#8FC4E6;stroke-linecap:round;stroke-linejoin:round;stroke-miterlimit:10;}	.st3{fill:#B4B7FF;}	.st4{fill:#0E67AA;}	.st5{fill:#1D3F72;}	.st6{fill:#4193B7;}	.st7{fill:#1C538E;}	.st8{fill:#0D2644;}	.st9{fill:#15CCBE;}	.st10{fill:none;stroke:#7DEFE9;stroke-linecap:round;stroke-linejoin:round;stroke-miterlimit:10;}	.st11{opacity:0.75;fill:#15CCBE;}	.st12{fill:#17DDD8;}	.st13{fill:none;stroke:#6CEFE8;stroke-linecap:round;stroke-linejoin:round;stroke-miterlimit:10;}	.st14{fill:#FA768D;}	.st15{opacity:0.25;fill:#628CD2;}	.st16{fill:#FFB67E;}	.st17{opacity:0.25;}	.st18{fill:#628CD2;}	.st19{fill:#1B3760;}	.st20{fill:#E88949;}	.st21{opacity:0.55;}	.st22{fill:url(#SVGID_1_);}	.st23{opacity:0.5;}	.st24{fill:#FFFFFF;}	.st25{opacity:0.2;}	.st26{fill:url(#SVGID_2_);}	.st27{fill:#A3A3FF;}	.st28{fill:#FFDD15;}	.st29{fill:#23E688;}	.st30{fill:#2AB8EA;}	.st31{fill:#2297C6;}	.st32{fill:#24ABE2;}	.st33{opacity:0.57;fill:#2AB8EA;}	.st34{fill:#84DBEF;}	.st35{fill:#063160;}	.st36{fill:none;stroke:#84DBEF;stroke-width:0.5;stroke-linecap:round;stroke-linejoin:round;stroke-miterlimit:10;}	.st37{fill:#184580;}	.st38{fill:#1A60A0;}	.st39{fill:#033473;}	.st40{fill:#6FDEF7;}	.st41{fill:#F3A63F;}	.st42{opacity:0.55;fill:#1B3760;}</style><path class="st0" d="M164.1,145.3c-2,0-3.8,0.7-5.1,1.9c0.4-1.6,0.3-3.4-0.5-5.2c-1.2-2.9-3.9-5.1-7-5.5c-2-0.3-3.9,0.2-5.5,1.1 c0.2-1.3,0.3-2.6,0.2-4c-0.3-11.1-9.2-20.3-20.2-21.2c-12.1-0.9-22.3,8-23.4,19.6c-1.5-1.2-3.5-1.8-5.7-1.4 c-2.2,0.4-4.2,1.8-5.3,3.8c-1,1.8-1.1,3.5-0.7,5.1c-1.3-1.2-3.2-1.9-5.3-1.6c-2.6,0.4-4.7,2.5-5.1,5.1c-0.3,1.6,0.1,3.1,0.9,4.4 c-0.9-0.3-1.8-0.4-2.7-0.4c-5,0-9,4.5-5.2,4.5s93.1,0,96,0C172.4,151.6,169.4,145.3,164.1,145.3z"></path><path class="st0" d="M232.3,76.1H193c-1.2-1-2-2.6-2-4.3c0-3.1,2.5-5.6,5.6-5.6c0.4,0,0.7,0,1,0.1c-0.1-0.6-0.2-1.3-0.2-2 c0-7,5.7-12.7,12.7-12.7c6.3,0,11.5,4.6,12.5,10.6c1.4-1.1,3.3-1.8,5.2-1.8c4.7,0,8.5,3.8,8.5,8.5C236.3,71.9,234.7,74.6,232.3,76.1 z"></path><g>	<g>		<rect x="89.8" y="398.7" class="st1" width="18" height="35.4"></rect>	</g></g><g>	<polyline class="st0" points="285.6,75.9 285.6,43.7 412.4,43.7 412.4,170.2 285.6,170.2 285.6,151.9  "></polyline>	<line class="st2" x1="285.6" y1="116.6" x2="285.6" y2="146.8"></line>	<line class="st2" x1="285.6" y1="105.4" x2="285.6" y2="109.4"></line>	<g>		<rect x="385.1" y="80.1" class="st3" width="19.9" height="39.2"></rect>		<rect x="295.7" y="59" class="st3" width="109.3" height="13.3"></rect>		<rect x="296.6" y="80.1" class="st3" width="84.6" height="6.4"></rect>		<rect x="296.6" y="96.6" class="st3" width="84.6" height="6.4"></rect>		<rect x="296.6" y="113" class="st3" width="84.6" height="6.4"></rect>		<rect x="296.6" y="129.4" class="st3" width="108.9" height="6.4"></rect>		<rect x="296.6" y="145.9" class="st3" width="108.9" height="6.4"></rect>	</g></g><g>	<path class="st4" d="M330,443.7l7,48.1c0,0,5.6,7.5,26.6,7.5s26.6-7.5,26.6-7.5l7-48.1H330z"></path>	<path class="st5" d="M363.7,469.8c12.4,0,23.4-1.6,30.4-4l3.1-21.5h-67.1l3.1,21.5C340.3,468.3,351.3,469.8,363.7,469.8z"></path>	<path class="st4" d="M402,454.8c0,5.6-17.2,10.2-38.3,10.2c-21.2,0-38.3-4.6-38.3-10.2l-1.8-15.3h80.4L402,454.8z"></path>	<ellipse class="st6" cx="363.7" cy="439.5" rx="40.2" ry="10.7"></ellipse>	<ellipse class="st7" cx="363.7" cy="439.3" rx="35.9" ry="8"></ellipse>	<path class="st8" d="M329.4,441.7c4.6-3.3,18.2-5.6,34.3-5.6c16.1,0,29.7,2.4,34.3,5.6c1.1-0.8,1.6-1.6,1.6-2.4  c0-4.4-16.1-8-35.9-8c-19.8,0-35.9,3.6-35.9,8C327.7,440.1,328.3,440.9,329.4,441.7z"></path>	<g>		<path class="st9" d="M392,375.4c2.6-9.3-0.6-16.7-4-25c-3.4-8.3-4-17.2-2.7-25.9c1.8-11.9,5.7-23.4,1.1-34.9   c-4.3-10.9-8.4-25.2-20.2-29.8c-11.4-4.9-20.1,6.4-19.9,16.8c0.2,10.4,6.1,19.8,3.1,30c-2.2,8.4-5.2,18.4-0.8,26.4   c5.2,10,15,17,11.4,29.1c-1.4,4.3-3.8,8-4.3,12.4c-0.6,6.6,2.7,8.2,5.7,13.5c12.6,22.1-10.5,31.1-1.4,55.4   c0.3,0.7,0.9,1.1,1.6,1.1l0,0c0.8,0,1.5-0.6,1.5-1.4c2.9-27.2,22.3-17.8,22.5-39.8c0-4.1-1.2-8.2-0.7-12.3   C385.6,384.6,390.5,381.3,392,375.4z"></path>		<path class="st10" d="M365.2,385.1c0,0,1.4,16.2,13.2,18.2"></path>		<path class="st10" d="M353.9,306.9c0,0,0.8,18,16,22.9"></path>		<path class="st10" d="M387.6,282.3c0,0-0.7,18.8-15.5,21.6"></path>		<path class="st10" d="M387.1,341c0,0,3.5,20.5-8.4,25.8"></path>		<path class="st10" d="M380.7,402.9c0,0,0,14.4-14.5,15.9"></path>		<path class="st10" d="M360.5,256.2c0,0,1.4,18.9,12.6,22.1"></path>		<path class="st10" d="M363.7,274.4c10,9.9,9.2,32.3,8.4,42.6c-0.6,7.5-4.6,25,0,37.8c4.9,13.5,9.3,27.8,3.7,46.4   c-3.9,12.9-16.5,19.2-14,42.8"></path>		<path class="st11" d="M385.7,401.9c0,0.4,0,0.8,0,1.2c-0.1,14.5-8.5,15.4-15.1,22c0.8-3.9,1-8.6,3.5-11.8c2.8-3.1,6.6-3.8,9.4-7.5   C384.7,404.4,385.3,403.1,385.7,401.9z M393.4,341.9c-4.4-10.8-5.2-22.3-3.5-33.6c0.2-1.1,0.3-2.2,0.5-3.3   c-5.8,2.3-10.4,6.5-13.2,12.4c-8.3,17.5-1.8,29.4,5.4,42.7c5.8,10.8,2,20.8,3.3,32.2c0.5,4.8,2.6,8.5,4.2,12   c-0.4-3.3-0.9-6.6-0.5-9.9c0.7-8.1,7.1-12.4,9-20C401.9,362.3,397.8,352.7,393.4,341.9z M364.2,421.1c-0.9-1.9-2-4-2.1-6.1   c-2.9,7.5-6.1,15.3-2.6,26.3c0,0,0,0.1,0,0.1c0.2,0.6,0.4,1.3,0.6,1.9c0,0.1,0.1,0.2,0.2,0.3c0,0,0,0,0,0.1   c0.1,0.1,0.2,0.2,0.3,0.3c0,0,0,0,0,0c0.3,0.3,0.7,0.4,1.1,0.4h0c0.3,0,0.6-0.1,0.9-0.3c0.5-0.4,0.6-0.8,0.7-1c0,0,0-0.1,0-0.1   c0.4-4,1.2-7.3,2.3-9.9c-0.6,0.4-1.2,0.7-1.8,1.1C365.7,429.8,367,427.2,364.2,421.1z"></path>	</g>	<g>		<path class="st12" d="M421.6,370.6c-5.7-10.4-5.6-17.2-5-28.3c0.6-11.3-2.8-26.4-16.7-28.9c-10.4-1.9-18.8,2.3-22.7,10.5   c-6.4,13.5-1.4,22.7,4.1,32.9c4.5,8.3,1.6,16,2.5,24.8c0.9,8.8,8.8,12.9,2.2,22c-2.8,3.8-6.6,4.4-9.4,7.5   c-2.8,3.5-2.8,8.9-3.8,12.9c-2.5,10.1-12.5,8.7-12.9,19c0,0.8,0.6,1.5,1.1,1.5c0.5,0,1,0.1,1.4-0.6c2.3-4.1,6.2-3.5,10.5-5.4   c3.2-1.4,4.2-5.4,11.9-6.3c10-1.2,19.2,5.3,24.2-8.2c1.9-4.7,1.3-8.8,2.2-13.5c0.9-6.3,5-10.1,9.1-14.5   C427.6,387.9,426.6,379.7,421.6,370.6z"></path>		<g>			<path class="st13" d="M390.6,326.2c0,0,8.6,15.2,20.5,16.2"></path>			<path class="st13" d="M399.6,373.2c0,0-0.7,27.3,8.1,33.1"></path>			<path class="st13" d="M428,354.9c0,0-1,23.5-15.7,27.6"></path>			<path class="st13" d="M405.4,412.2c0,0-5.8,17.4-22.2,14.6"></path>			<path class="st13" d="M412.9,305.3c0,0,6.2,17.8-3.1,26.3"></path>			<path class="st13" d="M361.2,443.5c1.5-5.7,9.9-7.7,12.3-9.3c26.6-17.3,37-50.8,23.8-107.5"></path>		</g>		<path class="st11" d="M360,443c0,0.8,0.6,1.5,1.1,1.5c0,0,0.1,0,0.1,0c1.7-1.3-0.4-3.1,2.1-9.1C361.5,437.2,360.1,439.3,360,443z"></path>	</g>	<g>		<path class="st12" d="M361.9,418.1c-3.1-6.7-0.2-15.3-3.2-20.2c-3.8-6.1-10-1.5-17.3-9.9c-6.1-7.1-1.7-16.8-15.6-24.1   c-4.3-2.2-9.2-1.1-10.8,3.7c-2,4.5,1.2,11,2.6,15.3c1.4,3.7,3.1,6.4,2.4,10.5c0,0,0,0.1,0,0.1c-0.8,3.1-2.9,4.8-1.8,8.5   c2.3,9,15.1,8.2,21.5,13.8c4.5,4,0.4,8.7,4.9,14.7c4.4,5.9,6.7-0.5,14.6,13.5c0.3,0.5,0.9,0.7,1.4,0.4l0,0c0.4-0.2,0.6-0.6,0.5-1   C359.9,428.3,366.5,428,361.9,418.1z"></path>		<g>			<path class="st13" d="M303.9,373.4c0,0,1,9,9.5,11.9"></path>			<path class="st13" d="M308.7,399c0,0,8.6,9.9,19.3,5.9"></path>			<path class="st13" d="M347.3,394.9c0,0,5,8.2,1.3,12.1"></path>			<path class="st13" d="M354.9,410.4c0,0,3,10.2-2.2,13.9"></path>			<path class="st13" d="M320.1,379.3c0,0,5.6,13.8,0.8,18.8"></path>			<path class="st13" d="M337.6,409.7c0,0,3.8,6.5,14.7,5.8"></path>			<path class="st13" d="M344.9,423.5c0,0,1.1,6.5,11.7,8.1"></path>			<path class="st13" d="M359.9,444.1c-0.4-13.9-7.8-15-7.6-23.2c0.2-6.4,0-12.5-7.8-17.1c-13.4-8-18.9-16.3-21.6-34"></path>		</g>	</g></g><g>	<g>		<path class="st14" d="M311.9,194.6c-1.7,18,11.7,28.4,17.7,43.6l21.8-13.3c-11.2-11.9-27.6-14.1-32.7-31.5"></path>	</g>	<g>		<path class="st14" d="M337.7,224.6c-13.8,5.2-44.1,8.8-58.3,12.2l0,0c0,10.1,5.8,18.3,10.8,26.6c5,8.2,9.5,16.5,13.6,25.1   c1.1,2.6,5.2,15.3,7.3,17c9.6-2.5,20.9-6.7,30.2-13.8c14.4-11,25.6-23,29.9-40.6l-8.6-13l-8-10.4l-11.2-5.6h-4.2L337.7,224.6z"></path>	</g>	<path class="st15" d="M357.2,262.6c0,0,0.8-5.9-2.7,1.4c-2.4,9.7-21.9,30.8-39,35.8c-2,1.7-2.7,3.6-2.6,5.5  c9.2-2.5,19.7-6.6,28.4-13.3c6.7-5.1,12.7-10.4,17.6-16.5C358,269.1,357.2,262.6,357.2,262.6z"></path>	<g>		<path class="st16" d="M347.7,313.2c0.6,3.8-1.3,3.8-1.9,6.4c-0.7,3.1-2,6.5,0.9,8.1c0.5,0.2,1.3-0.1,0.8-1.2   c0.3,0.1,1.7,1.2,2.1,1.3c1.5,0.3,2.8,0.7,3.2-1.5c1.7-1.5,2.3-4.2,1.8-6.4c-0.5-1.9-1.9-2.4-1.9-4.5c0-2.1,1.9-5,2.6-7.2"></path>	</g>	<g>		<path class="st14" d="M354.2,261.7c3.4,24.9,0.4,36.9-8.4,51c0.9,3,5,3.6,8.6,2.4c38-43.3,14.7-79.6,3.8-84.6"></path>	</g>	<g class="st17">		<path class="st18" d="M362.4,233.5c10.8,11.7,22.9,43.5-9.7,80.6c-0.5,0.5-2.1,1.4-2.9,1.5c1.4,0.2,3.1,0,4.6-0.6   C387.9,276.8,373.7,244.1,362.4,233.5z"></path>	</g>	<g>		<path class="st16" d="M349.5,208.8c-0.6,4.4-1.2,8.8-2.3,13.1c-1.5,4.7-4.7,9-1.5,13.1c7.9,10.8,26.6-3.2,26.6-13.4"></path>	</g>	<g>		<path class="st16" d="M353,221.8c-0.2,0.6-0.6,1.2-1.1,1.6c-0.5,0.4-1.2,0.6-1.7,0.9c-0.5,0.2-0.2,0.8,0,1.4   c0.2,0.6,0.5,1.2,0.5,1.8c-0.3-0.6-0.6-1.1-0.9-1.7c-0.2-0.3-0.3-0.6-0.3-1c0-0.2,0-0.4,0.1-0.6c0.1-0.2,0.3-0.3,0.4-0.4   c0.6-0.3,1.2-0.4,1.7-0.8C352.3,222.8,352.7,222.4,353,221.8z"></path>	</g>	<g>		<path class="st19" d="M375.4,213.4c1.3-3.5,2.3-7.3-1.8-10.4c-10.9-8.1-17.4-1.6-20.8-1.6c-1.6-0.3-4.6-6.3-6.2,1.3   c-2.9,13.5,9.9,21.5,21.3,17.1c0.3,3.1-3.4,6-3.1,8.3c0.5,3.4,4.9,3.6,7.3,2.3C377.7,227.6,382.9,213.2,375.4,213.4z"></path>	</g>	<g>		<path class="st20" d="M347.3,326.1c-0.1-0.5-0.4-1.1-0.2-1.6c0.3-0.5,1-0.6,1.5-0.6c0.6,0,1.2,0.2,1.5,0.7   c0.3,0.5,0.4,1.1,0.5,1.6c-0.2-0.5-0.4-1.1-0.7-1.5c-0.3-0.4-0.8-0.6-1.4-0.6c-0.5,0-1.1,0-1.5,0.4   C346.9,325,347.2,325.6,347.3,326.1z"></path>	</g>	<g>		<path class="st20" d="M351.4,322.7c0.3,0.1,0.6,0.3,0.8,0.6c0.2,0.3,0.4,0.6,0.5,0.9c0.2,0.6,0.3,1.3,0.1,1.9c0-0.3,0-0.6-0.1-0.9   c-0.1-0.3-0.1-0.6-0.3-0.9c-0.1-0.3-0.2-0.6-0.4-0.8C351.8,323.2,351.7,322.9,351.4,322.7z"></path>	</g>	<g>		<path class="st20" d="M348.9,325.2c0.2-0.1,0.5-0.1,0.7-0.1c0.2,0,0.4,0,0.7,0c-0.1,0.1-0.2,0.2-0.3,0.2c-0.1,0-0.2,0-0.4,0.1   C349.3,325.4,349.1,325.3,348.9,325.2z"></path>	</g>	<g class="st21">		<path class="st19" d="M377.5,213.9c0.6,0.9,1,1.6,0.9,3.1c-0.1,3.5-2.8,8.7-6.5,8.1c-1.2-0.2-1.9-1.4-2-2.6c0-1.2,1.4-6.6,0.6-6.5   c-2.7,0.4-12.5,5.1-22.9-2.9c3.4,6.8,12.1,9.9,20.2,6.8c0.3,3.1-3.4,6-3.1,8.3c0.5,3.4,4.9,3.6,7.3,2.3   C377,227.9,381.7,216.3,377.5,213.9z"></path>	</g></g><g>	<linearGradient id="SVGID_1_" gradientUnits="userSpaceOnUse" x1="232.2131" y1="16.3137" x2="279.4453" y2="16.3137">		<stop offset="0" style="stop-color:#5F6AFF"></stop>		<stop offset="1" style="stop-color:#5D57FF"></stop>	</linearGradient>	<path class="st22" d="M269.8,0h-23.5c-5.3,0-9.6,4.3-9.6,9.6v3l-3.8,2.6c-1,0.7-1,1.7,0,2.4l3.8,2.6v3c0,5.3,4.3,9.6,9.6,9.6h23.5  c5.3,0,9.6-4.3,9.6-9.6V9.6C279.4,4.3,275.1,0,269.8,0z"></path>	<g class="st23">		<path class="st24" d="M272,16.9l-6.4-2.5v-2.6l9.2,4V18l-9.2,4v-2.6L272,16.9z"></path>		<path class="st24" d="M254.9,10.7c0-0.3,0.1-0.5,0.2-0.6c0.2-0.1,0.4-0.2,0.7-0.2c0.4,0,0.6,0.1,0.7,0.3c0.1,0.2,0.2,0.6,0.4,1.2   l2.6,10.6c0.1,0.6,0.2,0.9,0.2,1.1c0,0.5-0.3,0.8-0.9,0.8c-0.3,0-0.4-0.1-0.6-0.2c-0.1-0.1-0.2-0.3-0.3-0.5   c-0.1-0.2-0.1-0.5-0.2-0.8l-2.6-10.6C255,11.2,254.9,10.9,254.9,10.7z"></path>		<path class="st24" d="M239.9,15.8l9.2-4v2.6l-6.4,2.5l6.4,2.5V22l-9.2-4V15.8z"></path>	</g></g><g>	<g>		<path class="st14" d="M183.5,103.8c-1.9,2.1-5.2,2.2-7.3,0.3c-2.1-1.9-2.2-5.2-0.3-7.3c1.9-2.1,5.2-2.2,7.3-0.3   C185.3,98.4,185.4,101.7,183.5,103.8z"></path>	</g>	<g>		<path class="st14" d="M204.1,128.6c-1.9,2.1-5.2,2.2-7.3,0.3c-2.1-1.9-2.2-5.2-0.3-7.3s5.2-2.2,7.3-0.3   C205.9,123.2,206,126.5,204.1,128.6z"></path>	</g>	<g>		<path class="st14" d="M157,109.3c-1.3,1.4-3.5,1.5-4.9,0.2c-1.4-1.3-1.5-3.5-0.2-4.9c1.3-1.4,3.5-1.5,4.9-0.2   C158.2,105.7,158.3,107.9,157,109.3z"></path>	</g>	<g>					<rect x="189.9" y="101.1" transform="matrix(0.7602 -0.6496 0.6496 0.7602 -27.1938 150.8065)" class="st14" width="1.6" height="22.3"></rect>	</g>	<g>					<rect x="155.9" y="103.2" transform="matrix(0.9646 -0.2636 0.2636 0.9646 -21.5484 47.2827)" class="st14" width="19.1" height="1.6"></rect>	</g></g><path class="st0" d="M237.9,105.8l2.2-2.2c0.3-0.3,0.3-0.9,0-1.2c-0.3-0.3-0.9-0.3-1.2,0l-2.2,2.2l-2.2-2.2c-0.3-0.3-0.9-0.3-1.2,0 c-0.3,0.3-0.3,0.9,0,1.2l2.2,2.2l-2.2,2.2c-0.3,0.3-0.3,0.9,0,1.2c0.2,0.2,0.4,0.3,0.6,0.3s0.4-0.1,0.6-0.3l2.2-2.2l2.2,2.2 c0.2,0.2,0.4,0.3,0.6,0.3c0.2,0,0.4-0.1,0.6-0.3c0.3-0.3,0.3-0.9,0-1.2L237.9,105.8z"></path><g class="st25">	<path class="st0" d="M131.1,84.8c-2.5,0-4.5-2-4.5-4.5c0-2.5,2-4.5,4.5-4.5c2.5,0,4.5,2,4.5,4.5C135.6,82.8,133.6,84.8,131.1,84.8z   M131.1,77.6c-1.5,0-2.8,1.3-2.8,2.8c0,1.5,1.3,2.8,2.8,2.8c1.5,0,2.8-1.3,2.8-2.8C133.9,78.8,132.6,77.6,131.1,77.6z"></path></g><g class="st25">	<path class="st0" d="M405.5,85.6c-2.5,0-4.5-2-4.5-4.5c0-2.5,2-4.5,4.5-4.5c2.5,0,4.5,2,4.5,4.5C410,83.6,407.9,85.6,405.5,85.6z   M405.5,78.3c-1.5,0-2.8,1.3-2.8,2.8c0,1.5,1.3,2.8,2.8,2.8c1.5,0,2.8-1.3,2.8-2.8C408.2,79.6,407,78.3,405.5,78.3z"></path></g><g>	<g>		<linearGradient id="SVGID_2_" gradientUnits="userSpaceOnUse" x1="227.9156" y1="482.8892" x2="227.9156" y2="134.7702">			<stop offset="0" style="stop-color:#5F6AFF"></stop>			<stop offset="1" style="stop-color:#3434E0"></stop>		</linearGradient>		<path class="st26" d="M138.6,134.8h178.6c4.3,0,7.7,3.5,7.7,7.7v332.6c0,4.3-3.5,7.7-7.7,7.7H138.6c-4.3,0-7.7-3.5-7.7-7.7V142.5   C130.9,138.2,134.4,134.8,138.6,134.8z"></path>					<rect x="139" y="173" transform="matrix(-1 -1.224647e-16 1.224647e-16 -1 455.8313 617.6594)" class="st27" width="177.8" height="271.7"></rect>		<path class="st27" d="M200,157v-2.8c0-0.6,0.4-1,1-1h53.8c0.6,0,1,0.4,1,1v2.8c0,0.6-0.4,1-1,1H201C200.5,158,200,157.6,200,157z"></path>		<circle class="st27" cx="227.9" cy="462.4" r="10.7"></circle>	</g>	<g>		<g>			<path class="st0" d="M301.9,429.1H155.2c-1.3,0-2.4-1.1-2.4-2.5v-23.3l11.2-11.7h137.8c1.3,0,2.4,1.1,2.4,2.5v32.5    C304.3,428,303.2,429.1,301.9,429.1z"></path>			<path class="st1" d="M161.7,403.3h-8.8l11.2-11.7v9.2C164.1,402.2,163,403.3,161.7,403.3z"></path>		</g>		<rect x="151.5" y="208.8" class="st0" width="38.3" height="71.6"></rect>		<rect x="243.6" y="325.5" class="st0" width="60.7" height="55"></rect>		<rect x="266.8" y="208.8" class="st0" width="37.5" height="37.5"></rect>		<rect x="195.1" y="188.5" class="st0" width="109.2" height="12.7"></rect>		<rect x="195.8" y="208.8" class="st0" width="62.7" height="6.1"></rect>		<rect x="195.8" y="224.5" class="st0" width="62.7" height="6.1"></rect>		<rect x="195.8" y="240.2" class="st0" width="62.7" height="6.1"></rect>		<rect x="195.8" y="255.9" class="st0" width="108.5" height="6.1"></rect>		<rect x="195.8" y="271.6" class="st0" width="108.5" height="6.1"></rect>		<path class="st14" d="M159.8,192.7c0,2.3-1.9,4.1-4.1,4.1c-2.3,0-4.1-1.9-4.1-4.1s1.9-4.1,4.1-4.1   C158,188.5,159.8,190.4,159.8,192.7z"></path>		<path class="st28" d="M174.9,192.7c0,2.3-1.9,4.1-4.1,4.1c-2.3,0-4.1-1.9-4.1-4.1s1.9-4.1,4.1-4.1   C173,188.5,174.9,190.4,174.9,192.7z"></path>		<path class="st29" d="M189.9,192.7c0,2.3-1.9,4.1-4.1,4.1c-2.3,0-4.1-1.9-4.1-4.1s1.9-4.1,4.1-4.1   C188,188.5,189.9,190.4,189.9,192.7z"></path>		<g>							<rect x="152.9" y="374.5" transform="matrix(-1 -1.224647e-16 1.224647e-16 -1 386.6045 755.5242)" class="st0" width="80.8" height="6.5"></rect>							<rect x="152.9" y="358.2" transform="matrix(-1 -1.224647e-16 1.224647e-16 -1 386.6045 722.8528)" class="st0" width="80.8" height="6.5"></rect>							<rect x="152.9" y="341.8" transform="matrix(-1 -1.224647e-16 1.224647e-16 -1 386.6045 690.1813)" class="st0" width="80.8" height="6.5"></rect>							<rect x="152.9" y="325.5" transform="matrix(-1 -1.224647e-16 1.224647e-16 -1 386.6045 657.5097)" class="st0" width="80.8" height="6.5"></rect>							<rect x="152.9" y="309.2" transform="matrix(-1 -1.224647e-16 1.224647e-16 -1 457.175 624.8384)" class="st0" width="151.4" height="6.5"></rect>							<rect x="152.9" y="292.8" transform="matrix(-1 -1.224647e-16 1.224647e-16 -1 457.175 592.1669)" class="st0" width="151.4" height="6.5"></rect>		</g>	</g></g><g>	<polygon class="st30" points="135.5,456.6 72.9,456.6 85.3,440.2 147.9,440.2  "></polygon>	<polygon class="st31" points="135.5,456.6 135.5,500 147.9,483.7 147.9,440.2  "></polygon>	<rect x="72.9" y="456.6" class="st32" width="62.6" height="43.4"></rect></g><ellipse class="st33" cx="111.1" cy="449" rx="28.1" ry="5.8"></ellipse><g>	<path class="st16" d="M125.5,262.6c0.9-2.7,5.1-8.7,4.3-9.9c-0.2-0.3-1.9,1.9-3.6,4.2c0.7-1.2,1.3-2.4,1.9-3.7  c0.3-0.6,0.4-1.5-0.1-1.7c-1.2,1.3-2.3,2.7-3.3,4.1c0.7-1.3,1.1-2.5,0.7-3c-0.3-0.4-2.1,2-3.5,4.5c0.8-1.7,1.5-3.3,1.1-3.6  c-0.7-0.4-5.2,7.6-7.2,13.1c-1.5,4.1-4.1,7.4-5.4,10.4l9.3-0.7c0,0,1-4.4,2-6.1c1.1-1.8,3.6-2.8,4.9-5.2c0.9-1.6,3.3-4.4,2.5-5.2  S126.3,262.5,125.5,262.6z"></path></g><g>	<g>		<g>			<path class="st16" d="M101.3,446.4l-10.2,1.9c0,0,0.2-2.3,0.7-3.6c0.5-1.3,0.9-1.4,1.2-2.8c1.3-6-2.7-34-1.1-44.6    C91.7,376,92.1,355,88.9,346c-3.4-9.8,15.5-11.4,17.1,0c1.6,11.4-5.6,95.7-3.9,96.8c2.8,1.8,7.8,1.9,7.8,3.3    C109.9,447.5,101.3,446.4,101.3,446.4z"></path>			<path class="st34" d="M113.8,449.3c-0.6,2.4-17.5,1.9-20.8,1.9c-3.3,0-1.9-5.6-1-5.9c0.9-0.3,4.7,1.9,9.5,1.3    c1.1-0.1-1.5-2.4-1.4-3.5c1.9-1,3.6,1.3,4.6,1.7C105.6,445.2,114.6,446.3,113.8,449.3z"></path>			<path class="st35" d="M113.5,448.3c-0.6,2.4-17.5,1.9-20.8,1.9c-3.3,0-1.9-5.6-1-5.9c1.5,1,3.6,1.5,8.4,1    c1.1-0.1-1.2-2.3,0.7-3.4c1.9-1,2.5,1.5,3.5,1.9C105.3,444.2,114.3,445.3,113.5,448.3z"></path>		</g>		<path class="st36" d="M102.8,445.3c0.2-0.8,0.8-1.5,1.6-1.8"></path>		<path class="st36" d="M105,445.8c0.3-0.8,0.9-1.4,1.7-1.7"></path>		<path class="st36" d="M106.8,446.3c0.3-0.7,0.8-1.3,1.5-1.6"></path>	</g>	<g>		<path class="st37" d="M108.5,359.6c0.5,19.7-2.1,52.6-5.2,74.4v0c-0.2,1.1-0.3,2.1-0.5,3.2c-3.9,0.5-8.4-0.3-11.9-1.9   c-2-14.2-2.4-49-3.7-60.3c-1-8.9-9.7-32.6-1.1-60.2l18.5,4.4l3.9,0.9l0.3,0.1l-0.6,13l-0.1,21   C108.3,355.9,108.4,357.7,108.5,359.6z"></path>	</g>	<g>		<path class="st38" d="M103.8,434.3c-0.8-0.6-13.3-0.1-13.5,0c-0.3,0.2,0.1,3.1,0.4,3.2c0.4,0.2,12,0.3,12.5,0   C103.8,437.2,104.6,434.9,103.8,434.3z"></path>	</g>	<g>		<g>			<path class="st16" d="M120.5,447.8l-10.2,1.9c0,0,0.2-2.3,0.7-3.6c0.5-1.3,0.9-1.4,1.2-2.8c1.3-6-2.7-34-1.1-44.6    c-0.3-21.3,0.2-42.2-3.1-51.3c-3.4-9.8,8.6-15.9,10.2-4.4c0.7,5.3,6.4,30.6,5.2,51.6c-1.5,24.4-3.1,49.1-2.2,49.7    c2.8,1.8,7.8,1.9,7.8,3.3S120.5,447.8,120.5,447.8z"></path>			<path class="st34" d="M133,450.7c-0.6,2.4-17.5,1.9-20.8,1.9c-3.3,0-1.9-5.6-1-5.9c0.9-0.3,4.7,1.9,9.5,1.3    c1.1-0.1-1.5-2.4-1.4-3.5c1.9-1,3.6,1.3,4.6,1.7C124.8,446.6,133.8,447.7,133,450.7z"></path>			<path class="st39" d="M132.7,449.8c-0.6,2.4-17.5,1.9-20.8,1.9s-1.9-5.6-1-5.9c1.5,1,3.6,1.5,8.4,1c1.1-0.1-1.2-2.3,0.7-3.4    c1.9-1,2.5,1.5,3.5,1.9C124.5,445.7,133.5,446.8,132.7,449.8z"></path>		</g>		<path class="st36" d="M122,446.7c0.2-0.8,0.8-1.5,1.6-1.8"></path>		<path class="st36" d="M124.2,447.3c0.3-0.8,0.9-1.4,1.7-1.7"></path>		<path class="st36" d="M126,447.8c0.3-0.7,0.8-1.3,1.5-1.6"></path>	</g>	<g>		<path class="st40" d="M108.5,359.6c0.5,19.7-2.1,52.6-5.2,74.4c-1.7-18.9,2.2-44.3-5.5-79.4c-1.4-6.3-0.1-12.8-0.1-12.8   S108.3,358.3,108.5,359.6z"></path>	</g>	<g>		<path class="st37" d="M122,437.2c-1.2-0.6-2.5-0.9-3.8-0.9c-2.6-0.1-5.4,0.4-8.4-0.6c-2.8-13.9-1.4-52.9-4.9-67.1   c-1-4.2-6.5-21.9-7.4-27.5c-1.4-8.5-0.1-18.5,1.3-26.2h21.3c4,9.3,4,20.4,4.5,30.3c0.1,1.2,0.1,2.5,0.2,3.8   C125.8,372.9,124.7,415.5,122,437.2z"></path>	</g>	<g>		<path class="st40" d="M122,437.2c-1.2-0.6-2.5-0.9-3.8-0.9c-0.1-8.1,0.3-59.3-0.1-72.6c-0.2-8.5-0.4-17.1-2.4-25.4   c-2-8.3-5.9-16.4-12.4-21.9l1.6-1.5h15.1c4,9.3,4,20.4,4.5,30.3c0.1,1.2,0.1,2.5,0.2,3.8C125.8,372.9,124.7,415.5,122,437.2z"></path>	</g>	<g>		<path class="st38" d="M122.9,435.5c-0.7-0.5-13-0.1-13.2,0c-0.3,0.2,0.1,2.8,0.4,2.9c0.4,0.2,11.8,0.3,12.3,0   C122.9,438.2,123.6,436.1,122.9,435.5z"></path>	</g></g><g>	<path class="st16" d="M113.6,237.8c4.7,1.4,3.6,3.9,0.5,4.6"></path></g><g>	<path class="st12" d="M125.1,335.2c-1.8,2.1-4,3.7-6.3,4.9c-3.5,1.8-7.6,2.6-11.6,2.8c-0.2,0-0.4,0-0.6,0c-0.3,0-0.5,0-0.8,0  c-12.6,0.2-25.1-5.2-25-6.1c1.2-10.6,0.6-40,0.7-48.9c0.2-24,9.2-28.1,15.4-29.2l5.3,0.3c10.8-3.4,21.3,18.7,21,20.3  c0.2,1.4,0.2,5.3,0.3,10.4C123.5,302.3,123.4,322.7,125.1,335.2z"></path></g><g>	<path class="st9" d="M125.1,335.2c-1.8,2.1-4,3.7-6.3,4.9c-3.5,1.6-7.5,2.5-11.6,2.8c-0.2,0-0.4,0-0.6,0c-0.4,0-0.7,0-1.1,0.1  c0.1,0,0.2,0,0.3,0c3.4-1,12.7-6.7,13.5-17.1c0.1-1.1-0.4-33.7-0.8-43.6l5,7.6C123.5,302.3,123.4,322.7,125.1,335.2z"></path></g><path class="st41" d="M130,278.2l3,3.5c0,0-2.9,15.7-4.5,12.2c-1.6-3.5-3.6-11.3-3.6-11.3L130,278.2z"></path><g>	<path class="st16" d="M168.8,267.4c0.4-1.1-4.9,2.6-6.6,3.7c3.8-3.1,6.4-5.8,6-6.4c-0.4-0.6-6.4,4.3-7.7,5c1-1.1,5.9-5.3,5.2-6.3  c-0.3-0.5-4.6,3.3-7.2,5.1c1.2-1.2,1.8-1.8,1.7-2.8c-0.2-1.7-6.4,6-8.5,8.3c-0.8,0.9-14.4,5.8-15.8,6c-1.6,0.2-11.2-10-11.2-10  l-4.9,10.9c6.9,5,12,9.7,14.5,10.1c3.4,0.6,19.3-11.2,20.8-11.6c3-0.7,8-4.2,9.9-5.9c1.3-1.1,3.5-2.6,3.8-3.5  c0.3-0.9-3.8,1.6-6,2.9C165.2,271.4,168.5,268.4,168.8,267.4z"></path></g><g>	<path class="st9" d="M133,278.1c-9.9-12.2-20.4-18.4-29-20.2l9.7,23.3c3.8,5.2,8.7,10.1,15.1,13C127.6,287,131.4,278.8,133,278.1z"></path></g><path class="st16" d="M97.3,258.8c0,0-0.3-4.5,0.5-9.3c0.8-4.8,10.5-4.5,9.1,0.2c-1.4,4.7,0.4,9.1,0.4,9.1 C107.3,261.6,98.1,263.8,97.3,258.8z"></path><g>	<path class="st16" d="M108.5,226.8c5.3,4.2,9.5,24.1,5.6,27.3c-1.9,1.6-12.1,4.4-15.9,0"></path></g><path class="st19" d="M114.9,225.7c-0.8-0.7-2-0.8-3.1-0.7c-0.1,0-0.3,0-0.4,0.1c-0.1-0.1-0.1-0.1-0.2-0.2c0.4-0.3,0.7-0.6,1-1 c0.6-0.7,1-1.9,0.5-2.6c-0.4-0.6-1.3-0.8-2.1-0.8c-1.3,0-2.5,0.3-3.7,0.9c-0.1-0.8-0.4-1.5-1-1.9c-0.5-0.3-1.1-0.4-1.7-0.4 c-1.3,0-2.5,0.4-3.7,1c-0.5-0.7-1.7-0.8-2.7-0.7c-1.7,0.3-3.3,1-4.7,1.9c-0.5-0.3-1.1-0.5-1.7-0.4c-1.1,0.1-2,0.9-2.8,1.7 c-0.2,0.2-0.4,0.5-0.5,0.8c-0.4-0.1-0.9-0.2-1.4-0.3c-0.7-0.1-1.5,0-2.2,0.3c-0.8,0.5-1.2,1.5-1.1,2.4c0.1,0.7,0.4,1.3,0.8,1.8 c-2.2,0.2-4.5,1.4-5.7,3.1c-1.3,2-0.1,4,0.7,4.4c-0.6,0.7-1,1.5-1.3,2.3c-0.4,0.9-0.5,2-0.1,2.9c0.4,0.9,1.2,1.4,2.1,1.7 c0.2,0.1,0.4,0.1,0.6,0.1c-0.3,0.6-0.5,1.2-0.6,1.8c-0.1,0.6-0.2,1.3,0.2,1.7c0.4,0.5,1.1,0.6,1.7,0.5c0.4-0.1,0.8-0.3,1.1-0.5 c-0.4,3.3,0.5,4.4,2.4,4c0,0.4,0.1,0.7,0.2,1.1c0.1,0.6,0.4,1.2,0.9,1.5c0.2,0.1,0.3,0.1,0.5,0.1c0.1,0.8,0.3,1.6,0.8,2.1 c0.6,0.7,1.6,0.7,2.3,0.2c0.1-0.1,0.2-0.2,0.2-0.2c0,0,0.1,0,0.1,0.1c0.2,1,0.6,1.8,1.1,2.4c0.2,0.3,0.5,0.5,0.8,0.5 c0.4,0.1,0.8-0.2,1.1-0.6c0.1-0.1,0.1-0.2,0.2-0.3c1.5,0.9,2.8,1.5,3.6,1.9c4.9,2.6,6.2-4,9-8.8c3.4-6.1,3.5-7.7,1.4-14.3 c0.1-0.1,0.1-0.3,0.2-0.4c0,0,0.1,0,0.1,0c1.5-0.1,2.9-0.7,3.8-1.8c0.3-0.5,0.6-1,0.6-1.6c0-0.8-0.3-1.4-0.9-2 c0.9-0.2,1.7-0.4,2.6-0.7c0.4-0.1,0.7-0.3,1-0.6C116,227.8,115.7,226.4,114.9,225.7z"></path><path class="st42" d="M115.3,228.6c-0.3,0.3-0.6,0.4-1,0.5c-0.9,0.3-1.7,0.5-2.6,0.7c0.5,0.5,0.9,1.2,0.9,2c0,0.6-0.3,1.1-0.6,1.6 c-0.9,1.2-2.4,1.8-3.8,1.8h-0.2c-0.1,0.1-0.1,0.3-0.2,0.4c2.1,6.6,2,8.3-1.4,14.3c-2.7,4.8-4.1,11.4-9,8.8c-0.8-0.4-2.1-1.1-3.6-1.9 c0,0.1-0.1,0.2-0.2,0.3c-0.3,0.4-0.7,0.7-1.1,0.6c-0.3,0-0.6-0.2-0.8-0.5c-0.5-0.6-0.9-1.3-1.1-2.2c1.1,0.6,2,1.4,2.8,1.5 c4.8,0.6,6.2-4,9-8.8c3.4-6,3.5-7.7,1.4-14.3c0.1-0.1,0.1-0.3,0.2-0.4h0.1c1.5-0.1,2.9-0.7,3.8-1.8c0.3-0.4,0.6-1,0.6-1.6 c0-0.8-0.3-1.4-0.9-2c0.9-0.2,1.7-0.4,2.6-0.7c0.4-0.1,0.7-0.3,1-0.5c0.3-0.3,0.4-0.7,0.4-1.1c0,0,0.1,0,0.1,0 c1.1-0.1,2.2,0,3.1,0.7C115.7,226.4,116,227.8,115.3,228.6z"></path><path class="st19" d="M111.7,225c-0.1,0-0.2,0-0.3,0c0-0.1-0.1-0.1-0.2-0.2c0.1-0.1,0.3-0.2,0.4-0.4 C111.7,224.7,111.7,224.9,111.7,225z"></path><g>	<path class="st16" d="M108.6,246.2c-0.2-1-0.7-1.9-1.4-2.5c-0.5-0.4-1.3-0.7-1.8-0.3c-0.3,0.2-0.4,0.5-0.5,0.9  c-0.3,1.1-0.5,2.2-0.4,3.3c0.1,1.1,0.5,2.2,1.3,3c0.6,0.6,1.4,0.9,2.2,0.8c1.2-0.2,1.1-1,1.2-2.2"></path></g><g>	<path class="st16" d="M108.6,245.4c-0.2-1-0.7-1.9-1.4-2.5c-0.5-0.4-1.7-0.9-2.2-0.5c-2.7,2,0.1,6.6,0.9,7.3  c0.6,0.6,1.4,0.9,2.2,0.8c1.2-0.2,1.1-1,1.2-2.2"></path></g></svg>